<?xml version="1.0" standalone="no"?>
<!DOCTYPE svg PUBLIC "-//W3C//DTD SVG 20010904//EN"
 "http://www.w3.org/TR/2001/REC-SVG-20010904/DTD/svg10.dtd">
<svg version="1.0" xmlns="http://www.w3.org/2000/svg"
 width="500.000000pt" height="500.000000pt" viewBox="0 0 500.000000 500.000000"
 preserveAspectRatio="xMidYMid meet">
<metadata>
Created by potrace 1.14, written by Peter Selinger 2001-2017
</metadata>
<g transform="translate(0.000000,500.000000) scale(0.100000,-0.100000)"
fill="#000000" stroke="none">
<path d="M2445 4569 c-32 -18 -45 -40 -45 -76 0 -83 115 -111 149 -36 16 36
13 59 -11 87 -27 30 -65 40 -93 25z"/>
<path d="M1909 4480 c-64 -34 -75 -73 -57 -196 3 -20 -15 -42 -245 -291 -35
-38 -55 -68 -51 -76 16 -28 38 -47 55 -47 18 0 107 88 259 257 72 80 88 93
124 99 28 4 52 18 78 44 33 33 38 44 38 85 0 59 -24 101 -72 126 -46 24 -83
24 -129 -1z m105 -102 c16 -26 -4 -53 -40 -53 -23 0 -30 5 -32 23 -2 13 -1 30
2 38 8 20 56 14 70 -8z"/>
<path d="M2920 4483 c-122 -63 -96 -235 39 -258 34 -6 56 -24 163 -138 178
-190 206 -217 227 -217 20 0 51 35 51 57 0 7 -70 88 -155 179 -85 91 -155 170
-155 174 0 5 4 11 9 14 5 4 12 24 16 45 18 107 -99 194 -195 144z m96 -108 c8
-33 -12 -57 -45 -53 -18 2 -27 10 -29 26 -6 37 5 52 37 52 24 0 32 -5 37 -25z"/>
<path d="M2437 4324 c-4 -4 -7 -90 -7 -191 l0 -184 48 3 47 3 0 185 0 185 -40
3 c-23 2 -44 0 -48 -4z"/>
<path d="M1185 4250 c-52 -21 -66 -92 -25 -135 51 -54 140 -18 140 57 0 42
-15 64 -51 77 -37 13 -37 13 -64 1z"/>
<path d="M3700 4247 c-32 -16 -54 -61 -46 -93 24 -95 166 -79 166 19 0 59 -68
101 -120 74z"/>
<path d="M1349 4057 c-21 -16 -39 -51 -39 -77 0 -30 53 -80 84 -80 40 0 80 41
80 83 0 67 -76 112 -125 74z"/>
<path d="M3505 4045 c-35 -34 -33 -78 4 -116 36 -35 70 -37 107 -5 21 18 28
32 28 61 0 74 -88 112 -139 60z"/>
<path d="M1002 3923 c-52 -25 -77 -69 -77 -133 0 -42 6 -63 23 -88 13 -18 22
-39 19 -46 -3 -8 -76 -108 -162 -224 -145 -196 -158 -210 -193 -216 -175 -28
-174 -264 1 -283 46 -5 94 20 129 68 22 30 26 95 8 138 -11 29 -8 35 147 243
87 117 168 226 180 243 l21 30 -39 46 c-62 74 -51 141 22 137 46 -3 94 2 109
12 12 7 11 13 -10 35 -52 56 -115 69 -178 38z m-344 -815 c7 -7 12 -21 12 -33
0 -12 -5 -26 -12 -33 -17 -17 -65 -15 -72 4 -16 41 1 74 39 74 12 0 26 -5 33
-12z"/>
<path d="M3835 3931 c-11 -5 -33 -21 -48 -37 -24 -23 -26 -30 -14 -41 9 -9 37
-15 73 -15 103 -2 123 -50 55 -134 -33 -39 -38 -51 -30 -67 6 -10 87 -120 181
-244 157 -208 169 -227 159 -250 -31 -69 0 -158 69 -194 47 -26 85 -24 135 6
42 24 49 34 66 89 21 72 -42 159 -125 171 -45 7 -45 7 -203 218 -87 115 -161
215 -165 222 -4 6 5 28 19 49 34 47 37 122 7 164 -46 61 -119 87 -179 63z
m543 -823 c7 -7 12 -21 12 -33 0 -29 -19 -45 -52 -45 -25 0 -48 23 -48 49 0
33 63 54 88 29z"/>
<path d="M2393 3880 c-174 -31 -316 -140 -392 -300 -35 -73 -36 -78 -36 -195
1 -104 4 -127 25 -175 56 -130 147 -212 283 -256 114 -37 277 -40 387 -5 104
32 164 67 217 125 60 67 88 126 108 224 36 176 -29 347 -179 468 -116 94 -275
138 -413 114z m-53 -325 c131 -68 83 -268 -66 -268 -104 0 -167 114 -116 212
31 62 119 89 182 56z m407 -6 c44 -27 63 -66 63 -129 0 -43 -5 -55 -33 -86
-120 -132 -312 30 -213 181 35 53 125 70 183 34z m-227 -320 c17 -28 30 -61
28 -72 -4 -27 -34 -34 -57 -13 -16 15 -19 15 -31 1 -14 -17 -46 -20 -55 -4 -4
5 -4 20 -1 33 7 27 63 106 75 106 5 0 23 -23 41 -51z m-325 -147 c87 -44 168
-62 282 -62 161 0 292 46 394 138 62 55 50 23 -14 -38 -85 -82 -203 -120 -377
-122 -174 -1 -308 43 -395 131 -60 59 -62 79 -4 29 30 -25 81 -60 114 -76z"/>
<path d="M1099 3789 c-9 -18 -7 -26 9 -48 l19 -26 243 -3 242 -2 97 -100 c53
-55 104 -100 113 -100 10 0 25 11 34 25 15 23 15 27 -2 53 -9 15 -58 71 -107
125 l-90 97 -273 0 c-268 0 -274 0 -285 -21z"/>
<path d="M3249 3753 c-107 -112 -159 -175 -159 -194 0 -10 11 -26 25 -35 23
-15 27 -15 49 -1 13 9 59 54 102 101 l78 86 239 0 238 0 24 24 c25 25 25 52 1
68 -6 4 -130 8 -276 8 l-266 0 -55 -57z"/>
<path d="M1162 3645 c-22 -28 -21 -36 6 -67 17 -20 102 -26 102 -7 0 5 -19 31
-43 56 l-43 46 -22 -28z"/>
<path d="M3727 3622 c-26 -26 -47 -51 -47 -55 0 -4 19 -7 43 -7 71 0 110 60
63 99 -9 8 -24 -1 -59 -37z"/>
<path d="M1185 3486 c-14 -20 -338 -443 -412 -539 -35 -44 -63 -84 -63 -89 0
-13 47 -58 61 -58 18 0 53 43 259 314 107 142 200 264 206 272 9 11 47 14 192
14 l181 0 74 -87 c189 -223 282 -317 350 -356 38 -22 71 -37 74 -33 3 3 -18
30 -48 61 -52 54 -79 93 -132 186 -15 26 -83 110 -152 188 l-126 141 -227 0
c-185 0 -229 -3 -237 -14z"/>
<path d="M3247 3438 c-156 -180 -202 -238 -243 -309 -25 -43 -72 -105 -106
-138 -34 -33 -59 -63 -56 -66 3 -4 32 7 64 23 69 35 135 100 312 304 l127 147
182 1 181 0 133 -172 c73 -95 175 -228 226 -295 51 -67 102 -125 114 -128 26
-9 59 20 59 51 0 22 -183 269 -407 552 l-73 92 -230 0 -229 0 -54 -62z"/>
<path d="M1333 3260 c-24 -10 -27 -20 -17 -57 6 -22 11 -23 106 -23 l99 0 -3
43 -3 42 -80 2 c-44 1 -90 -2 -102 -7z"/>
<path d="M3437 3264 c-4 -4 -7 -25 -7 -46 l0 -38 106 0 105 0 -3 43 -3 42 -95
3 c-53 1 -99 0 -103 -4z"/>
<path d="M1159 3038 c-95 -130 -202 -279 -357 -495 l-152 -212 0 -380 0 -381
25 -16 c29 -19 61 -11 72 19 4 12 7 180 5 373 l-3 350 258 357 257 357 174 0
175 0 100 -71 c80 -58 118 -77 191 -100 108 -34 122 -35 136 -10 16 32 13 37
-42 61 -68 29 -182 96 -281 165 l-78 55 -214 0 -213 0 -53 -72z"/>
<path d="M3210 3040 c-57 -39 -150 -94 -207 -123 -56 -28 -103 -57 -103 -62 0
-6 7 -20 15 -32 l15 -21 75 24 c42 13 82 24 90 24 8 0 67 36 132 80 l118 80
175 -2 175 -3 129 -180 c71 -99 185 -256 253 -349 l123 -170 0 -363 c0 -350 1
-364 20 -383 26 -26 55 -25 74 2 14 19 16 74 16 394 l0 371 -136 189 c-75 104
-155 216 -179 249 -96 137 -208 292 -231 318 l-24 27 -213 0 -212 0 -105 -70z"/>
<path d="M2168 2873 c-95 -98 -148 -233 -148 -378 0 -155 55 -283 163 -382 52
-48 56 -49 98 -27 l30 15 -66 70 c-70 75 -112 152 -122 228 -5 36 -3 47 12 57
24 18 83 17 115 -1 35 -20 48 -18 52 8 2 13 11 23 24 25 18 3 22 -4 27 -35 4
-21 7 -66 7 -100 0 -65 7 -75 31 -46 10 11 14 47 14 122 0 99 1 106 20 106 16
0 21 -8 25 -45 7 -62 19 -79 37 -55 7 11 13 33 13 49 0 38 13 60 31 54 11 -4
13 -27 11 -104 -4 -95 -3 -100 22 -123 23 -21 26 -22 32 -7 4 9 3 39 0 67 -4
27 -4 66 0 85 11 61 53 55 54 -8 0 -16 5 -28 10 -28 6 0 10 4 10 8 0 12 67 42
93 42 73 -1 81 -22 47 -132 -22 -71 -55 -123 -118 -183 -49 -46 -51 -58 -17
-73 42 -19 52 -15 113 46 61 61 123 171 141 252 37 161 -14 346 -132 475 l-53
59 -85 -25 c-112 -32 -260 -32 -365 -1 -39 12 -75 22 -81 22 -5 0 -25 -17 -45
-37z m576 -73 c28 -10 34 -38 14 -58 -17 -17 -113 -15 -128 3 -21 25 -8 49 30
56 54 10 57 10 84 -1z m-417 -16 c12 -33 -11 -49 -75 -52 -53 -3 -62 0 -72 18
-19 36 3 50 77 50 50 0 65 -4 70 -16z m-27 -164 c14 0 20 -31 10 -51 -9 -16
-22 -19 -79 -19 -72 0 -96 12 -89 47 2 14 16 19 63 24 33 3 66 4 73 2 8 -2 17
-3 22 -3z m507 -16 c13 -34 -11 -49 -85 -52 -62 -2 -72 0 -81 17 -22 40 -5 51
80 51 65 0 81 -3 86 -16z"/>
<path d="M580 2860 c0 -16 7 -20 35 -20 28 0 35 4 35 20 0 16 -7 20 -35 20
-28 0 -35 -4 -35 -20z"/>
<path d="M4310 2860 c0 -16 7 -20 35 -20 28 0 35 4 35 20 0 16 -7 20 -35 20
-28 0 -35 -4 -35 -20z"/>
<path d="M1343 2812 c-19 -6 -339 -418 -372 -479 -7 -15 -11 -103 -11 -274 l0
-252 -35 -38 c-19 -21 -37 -50 -41 -64 -17 -67 29 -146 96 -166 164 -49 260
179 108 257 l-28 15 0 238 c0 235 0 240 23 268 13 15 84 111 159 213 l137 185
118 2 118 2 27 33 c49 59 41 63 -127 65 -83 1 -160 -2 -172 -5z m-289 -1108
c23 -23 20 -51 -8 -69 -34 -23 -66 -5 -66 35 0 44 44 65 74 34z"/>
<path d="M3275 2810 c-4 -6 7 -28 24 -49 35 -43 65 -51 202 -51 76 0 79 -1
103 -32 14 -18 84 -112 156 -209 l130 -177 0 -240 0 -240 -34 -21 c-19 -12
-41 -37 -50 -55 -69 -146 114 -275 229 -161 59 59 55 146 -9 204 l-26 24 0
247 c0 289 10 255 -137 452 -54 73 -125 169 -157 213 -32 44 -65 86 -74 93
-20 15 -347 17 -357 2z m686 -1100 c23 -13 25 -53 3 -74 -30 -30 -74 -10 -74
34 0 41 33 60 71 40z"/>
<path d="M1678 2693 c-177 -223 -178 -224 -178 -280 l0 -50 140 -139 140 -138
0 -271 c0 -294 4 -315 55 -315 52 0 55 20 55 329 l0 284 -145 147 c-80 80
-145 150 -145 154 0 13 200 276 210 276 5 0 39 -7 76 -16 76 -17 93 -10 97 41
2 28 -1 30 -78 55 -145 48 -121 56 -227 -77z"/>
<path d="M3063 2777 c-50 -18 -94 -35 -97 -38 -3 -3 -1 -22 5 -42 11 -42 17
-43 101 -21 33 8 66 13 73 10 10 -4 185 -224 209 -264 5 -8 -40 -59 -138 -156
l-146 -143 0 -296 c0 -319 1 -327 54 -327 45 0 46 9 46 300 l0 275 140 140
140 140 0 60 c0 66 13 46 -178 284 -80 101 -90 111 -105 110 -7 0 -53 -15
-104 -32z"/>
<path d="M567 2733 c-4 -3 -7 -21 -7 -39 0 -30 3 -34 34 -40 46 -8 56 0 56 47
0 39 0 39 -38 39 -21 0 -42 -3 -45 -7z"/>
<path d="M4312 2698 l3 -43 40 0 40 0 0 40 0 40 -43 3 -43 3 3 -43z"/>
<path d="M560 2455 c0 -60 4 -95 11 -95 5 0 26 12 45 28 33 26 34 30 34 95 l0
67 -45 0 -45 0 0 -95z"/>
<path d="M4310 2481 c0 -68 1 -71 33 -95 53 -41 57 -37 57 69 l0 95 -45 0 -45
0 0 -69z"/>
<path d="M1340 2402 l-75 -37 -3 -230 -2 -230 135 -135 135 -135 0 -221 c0
-205 1 -222 19 -238 17 -15 39 -17 175 -14 166 3 175 6 176 53 0 39 -18 45
-142 45 l-118 0 0 202 0 201 -140 142 -140 141 0 177 0 177 40 25 c37 23 40
29 40 70 0 29 -4 45 -12 45 -7 0 -47 -17 -88 -38z"/>
<path d="M3516 2433 c-9 -10 -7 -62 4 -82 5 -10 23 -24 40 -31 l30 -12 2 -162
c0 -88 0 -172 -1 -186 -1 -18 -42 -65 -137 -157 l-134 -132 0 -205 0 -205
-127 -3 -128 -3 -3 -34 c-2 -18 1 -38 6 -43 5 -5 83 -10 172 -11 149 -2 163
-1 176 17 11 16 14 65 14 236 l0 217 135 134 135 134 0 212 c0 116 -3 219 -6
228 -9 24 -165 101 -178 88z"/>
<path d="M2319 2016 c-82 -33 -119 -59 -178 -121 -60 -64 -112 -167 -119 -236
l-5 -49 36 0 c34 0 37 2 47 43 21 82 55 141 123 210 56 57 70 67 82 57 23 -19
18 -37 -19 -59 -69 -43 -134 -137 -151 -218 l-7 -33 127 0 126 0 -8 23 c-4 12
-8 78 -8 146 l0 123 38 33 c30 26 37 39 37 69 0 34 -2 36 -32 36 -18 0 -58
-11 -89 -24z"/>
<path d="M2510 2002 c0 -31 5 -41 29 -55 46 -27 54 -61 49 -207 l-4 -130 180
0 179 0 -6 48 c-8 62 -45 145 -95 208 -68 87 -223 174 -309 174 -20 0 -23 -5
-23 -38z"/>
<path d="M2442 1868 c-8 -8 -12 -46 -12 -103 0 -79 3 -94 20 -110 17 -15 24
-16 45 -7 24 11 25 15 25 110 0 103 -7 122 -45 122 -12 0 -26 -5 -33 -12z"/>
<path d="M3582 1658 c-26 -26 -2 -75 31 -62 22 8 31 42 17 59 -15 18 -32 19
-48 3z"/>
<path d="M2005 1518 c-13 -62 -27 -237 -28 -353 -1 -100 3 -144 17 -190 113
-373 564 -493 831 -221 110 112 155 228 155 395 0 123 -24 369 -37 382 -5 5
-104 8 -219 7 l-209 -3 -3 -55 c-4 -85 -9 -100 -36 -100 -29 0 -36 16 -36 85
0 33 -5 57 -14 64 -9 8 -61 11 -162 9 l-149 -3 -11 -140 c-7 -77 -12 -141 -13
-142 0 -2 -10 -3 -21 -3 -24 0 -24 -1 -5 155 7 65 11 123 9 127 -3 4 -18 8
-34 8 -23 0 -31 -5 -35 -22z m829 -164 c23 -9 23 -146 0 -165 -30 -25 -49 1
-52 75 -4 83 10 106 52 90z m11 -304 c-1 -121 -79 -238 -201 -301 -65 -33 -72
-34 -178 -34 -94 0 -119 4 -163 24 -64 28 -77 43 -69 76 8 31 28 32 98 3 81
-33 187 -31 259 5 31 15 75 47 97 71 36 39 82 135 82 172 0 33 21 55 48 52 26
-3 27 -5 27 -68z"/>
<path d="M1337 1493 c-4 -3 -7 -21 -7 -40 0 -33 1 -33 45 -33 44 0 45 0 45 34
0 26 -5 35 -22 40 -30 8 -53 8 -61 -1z"/>
<path d="M3546 1487 c-11 -8 -17 -23 -14 -38 3 -21 8 -24 48 -24 40 0 45 3 48
24 4 26 -19 51 -48 51 -9 0 -24 -6 -34 -13z"/>
<path d="M1115 1428 c-11 -6 -40 -28 -65 -48 -25 -20 -58 -40 -73 -44 -55 -13
-62 -96 -9 -119 15 -6 52 -33 81 -59 53 -46 57 -48 118 -48 56 0 64 3 79 25
15 23 15 27 0 50 -14 22 -24 25 -74 25 -51 0 -62 4 -85 28 -15 15 -27 33 -27
38 0 26 47 52 104 58 68 8 86 19 86 52 0 45 -83 71 -135 42z"/>
<path d="M3733 1430 c-17 -7 -23 -18 -23 -38 0 -40 19 -53 86 -57 48 -2 61 -8
87 -34 l32 -31 -33 -30 c-29 -26 -41 -30 -91 -30 -64 0 -81 -11 -81 -52 0 -35
24 -48 87 -48 51 0 76 13 133 67 18 17 45 34 60 36 57 12 59 96 3 118 -39 15
-44 19 -103 67 -43 35 -59 42 -93 41 -23 0 -52 -4 -64 -9z"/>
<path d="M1330 1285 c0 -35 0 -35 45 -35 45 0 45 0 45 35 0 35 0 35 -45 35
-45 0 -45 0 -45 -35z"/>
<path d="M3532 1288 c3 -32 4 -33 48 -33 43 0 45 1 45 30 0 29 -2 30 -48 33
l-48 3 3 -33z"/>
<path d="M1168 1305 c-2 -3 -3 -18 0 -35 4 -29 6 -30 53 -30 l49 0 0 35 0 35
-48 0 c-27 0 -51 -2 -54 -5z"/>
<path d="M3684 1296 c-14 -37 0 -51 51 -51 49 0 50 1 50 30 0 29 -2 30 -48 33
-35 2 -49 -1 -53 -12z"/>
<path d="M3455 1095 c-14 -13 -25 -35 -25 -48 0 -27 -41 -77 -64 -77 -18 0
-56 -38 -56 -57 0 -9 17 -13 59 -13 49 0 61 3 66 19 3 10 14 26 25 36 20 18
21 18 55 -15 19 -19 35 -37 35 -41 0 -5 -24 -32 -52 -61 -53 -52 -53 -52 -56
-25 l-3 28 -87 -3 -87 -3 -3 -47 -3 -48 85 0 c75 0 87 -2 96 -20 6 -11 21 -22
34 -26 37 -9 64 11 72 54 8 45 37 79 76 87 68 15 73 99 8 121 -44 15 -90 66
-83 93 3 13 -4 29 -21 45 -31 32 -41 32 -71 1z"/>
<path d="M1432 1098 c-5 -7 -15 -31 -21 -54 -12 -47 -30 -66 -83 -87 -35 -15
-38 -19 -38 -56 0 -41 25 -71 60 -71 23 0 60 -42 60 -67 0 -28 37 -73 61 -73
11 0 30 11 43 25 20 21 32 24 102 27 l79 3 0 45 0 45 -87 3 -87 3 -3 -27 c-3
-26 -4 -25 -55 27 -29 30 -53 56 -53 59 0 4 16 21 35 40 34 33 35 33 55 15 11
-10 22 -26 25 -36 5 -16 17 -19 71 -19 35 0 64 4 64 9 0 20 -43 61 -65 61 -30
0 -65 44 -65 80 0 15 -8 34 -18 43 -22 20 -65 22 -80 5z"/>
<path d="M1792 973 l3 -48 40 0 c36 0 40 3 43 26 2 20 -4 32 -26 48 -50 35
-64 29 -60 -26z"/>
<path d="M3108 1003 c-55 -34 -48 -83 12 -83 42 0 50 10 50 66 0 39 -18 44
-62 17z"/>
<path d="M1794 816 c-13 -34 0 -51 44 -54 l42 -3 0 35 c0 35 -1 36 -40 36 -26
0 -43 -5 -46 -14z"/>
<path d="M3075 811 c-10 -34 4 -51 45 -51 41 0 52 13 43 49 -7 29 -79 31 -88
2z"/>
<path d="M1793 654 c-10 -27 11 -49 51 -52 35 -3 36 -2 36 32 0 35 -1 36 -40
36 -28 0 -43 -5 -47 -16z"/>
<path d="M3074 656 c-13 -35 0 -51 41 -51 38 0 40 2 43 33 3 31 2 32 -38 32
-26 0 -43 -5 -46 -14z"/>
<path d="M1912 523 c3 -37 4 -38 43 -38 39 0 40 1 40 35 0 34 -1 35 -43 38
l-43 3 3 -38z"/>
<path d="M2962 523 c3 -36 5 -38 38 -38 33 0 35 2 38 38 l3 37 -41 0 -41 0 3
-37z"/>
</g>
</svg>
